<svg width="24" height="24" viewBox="0 0 6.35 6.35" xmlns="http://www.w3.org/2000/svg"><g transform="matrix(.95694 0 0 .95694 .127 -.256)"><path style="fill:#000009;stroke-width:.906036;stroke-linecap:round;stroke-linejoin:round" d="M1.847 1.587h3.175c.146 0 .264.119.264.265v4.233a.264.264 0 0 1-.264.265H1.847a.264.264 0 0 1-.265-.265V1.852c0-.146.118-.265.265-.265Z" transform="translate(-.25)"/><g style="fill:#fff;fill-opacity:1"><path style="stroke-width:.684943;stroke-linecap:round;stroke-linejoin:round" transform="rotate(90 -.13 -.13)" d="M2.393-2.911h3.152c.109 0 .197.088.197.198 0 .11-.088.199-.197.199H2.393a.197.197 0 0 1-.197-.199c0-.11.087-.198.197-.198zM2.393-3.644h3.152c.109 0 .197.088.197.198 0 .11-.088.198-.197.198H2.393a.197.197 0 0 1-.197-.198c0-.11.087-.198.197-.198zM2.393-4.378h3.152c.109 0 .197.089.197.199 0 .11-.088.198-.197.198H2.393a.197.197 0 0 1-.197-.198c0-.11.087-.199.197-.199z"/></g><rect style="fill:#000009;fill-opacity:1;stroke-width:.79375;stroke-linecap:round;stroke-linejoin:round" width="4.762" height=".397" x=".804" y="1.058" rx=".265" ry=".265"/><rect style="fill:#000009;fill-opacity:1;stroke-width:.582473;stroke-linecap:round;stroke-linejoin:round" width="1.323" height=".265" x="2.524" y=".82" ry=".106" rx=".079"/></g></svg>
